<?xml version="1.0" encoding="utf-8"?>
<?xml-stylesheet type="text/xsl" href="rss1.xsl"?>
<rss version="2.0" xmlns:atom="http://www.w3.org/2005/Atom" xmlns:content="http://purl.org/rss/1.0/modules/content/" xmlns:dc="http://purl.org/dc/elements/1.1/" xmlns:media="http://search.yahoo.com/mrss/">
<channel>
 <title>Getty</title>
 <link>http://www.gettyimg.com/</link>
 <atom:link href="http://www.gettyimg.com/" rel="self" type="application/rss+xml" />

 
                <item>
                <title><![CDATA[【Requests】[REQ AUD] - Delete this.]]></title>
                <link><![CDATA[https://sharemania.us/threads/delete-this.221544/]]></link>
                <description><![CDATA[<article>
<blockquote class="messageText SelectQuoteContainer ugc baseHtml">
Plz delete this.
<div class="messageTextEndMarker">&nbsp;</div>
</blockquote>
</article>]]></description>
                <author><![CDATA[Tiger0970]]></author>
                </item>

                
                <item>
                <title><![CDATA[【Apple Music】WEB-RiP - Eminem - Just Lose It (1080p)]]></title>
                <link><![CDATA[https://sharemania.us/threads/eminem-just-lose-it-1080p.221545/]]></link>
                <description><![CDATA[<article>
<blockquote class="messageText SelectQuoteContainer ugc baseHtml">
<img src="https://i.imgur.com/mp97mUF.jpg" class="bbCodeImage LbImage" alt="[​IMG]" data-url="https://i.imgur.com/mp97mUF.jpg" style=""><br>
<br>
<div class="bbCodeBlock bbCodeCode">
<div class="type">Code:</div>
<pre>General
Complete name                  : C:\Users\asus\Desktop\Eminem - Just Lose It.mp4
Format                         : MPEG-4
Format profile                 : Base Media
Codec ID                       : isom (isom/iso2/avc1/mp41)
File size                      : 200 MiB
Duration                       : 4 min 3 s
Overall bit rate               : 6 870 kb/s
Frame rate                     : 23.976 FPS
Movie name                     : Just Lose It
Performer                      : Eminem
Genre                          : Hip-Hop/Rap
ContentType                    : Music Video
Recorded date                  : 2005-01-01 08:00:00 UTC
Writing application            : Lavf57.29.101
Copyright                      : ℗ 2004 Aftermath Entertainment/Interscope Records

Video
ID                             : 1
Format                         : AVC
Format/Info                    : Advanced Video Codec
Format profile                 : High@L4
Format settings                : CABAC / 5 Ref Frames
Format settings, CABAC         : Yes
Format settings, Reference fra : 5 frames
Codec ID                       : avc1
Codec ID/Info                  : Advanced Video Coding
Duration                       : 4 min 3 s
Bit rate                       : 6 604 kb/s
Width                          : 1 448 pixels
Height                         : 1 080 pixels
Display aspect ratio           : 4:3
Frame rate mode                : Constant
Frame rate                     : 23.976 (24000/1001) FPS
Color space                    : YUV
Chroma subsampling             : 4:2:0
Bit depth                      : 8 bits
Scan type                      : Progressive
Bits/(Pixel*Frame)             : 0.176
Stream size                    : 192 MiB (96%)
Language                       : English
Color range                    : Limited
Color primaries                : BT.709
Transfer characteristics       : BT.709
Matrix coefficients            : BT.709
Codec configuration box        : avcC

Audio
ID                             : 2
Format                         : AAC LC
Format/Info                    : Advanced Audio Codec Low Complexity
Codec ID                       : mp4a-40-2
Duration                       : 4 min 3 s
Bit rate mode                  : Constant
Bit rate                       : 265 kb/s
Channel(s)                     : 2 channels
Channel layout                 : L R
Sampling rate                  : 48.0 kHz
Frame rate                     : 46.875 FPS (1024 SPF)
Compression mode               : Lossy
Stream size                    : 7.65 MiB (4%)
Default                        : Yes
Alternate group                : 1

</pre>
</div>
<div class="bbCodeBlock bbCodeVfcHH HiddenContent">
<div class="attribution type">Hidden Content:</div>
<blockquote>You must either reply or click 'Like' to see the hidden information contained here.</blockquote>
</div>
<div class="messageTextEndMarker">&nbsp;</div>
</blockquote>
</article>]]></description>
                <author><![CDATA[vitalya3]]></author>
                </item>

                
                <item>
                <title><![CDATA[【Apple Music】WEB-RiP - Marta Gałuszewska - Jeden Dzień (1080p)]]></title>
                <link><![CDATA[https://sharemania.us/threads/marta-ga%C5%82uszewska-jeden-dzie%C5%84-1080p.221546/]]></link>
                <description><![CDATA[<article>
<blockquote class="messageText SelectQuoteContainer ugc baseHtml">
<img src="https://i.imgur.com/XZyy0wX.jpg" class="bbCodeImage LbImage" alt="[​IMG]" data-url="https://i.imgur.com/XZyy0wX.jpg" style=""><br>
<br>
<div class="bbCodeBlock bbCodeCode">
<div class="type">Code:</div>
<pre>General
Complete name                  : C:\Users\asus\Desktop\Marta Gałuszewska - Jeden Dzień.mp4
Format                         : MPEG-4
Format profile                 : Base Media
Codec ID                       : isom (isom/iso2/avc1/mp41)
File size                      : 241 MiB
Duration                       : 3 min 15 s
Overall bit rate               : 10.3 Mb/s
Frame rate                     : 25.000 FPS
Movie name                     : Jeden Dzień
Performer                      : Marta Gałuszewska
Genre                          : Pop
ContentType                    : Music Video
Recorded date                  : 2018-08-29 07:00:00 UTC
Writing application            : Lavf57.29.101
Copyright                      : ℗ 2018 Universal Music Polska

Video
ID                             : 1
Format                         : AVC
Format/Info                    : Advanced Video Codec
Format profile                 : High@L4
Format settings                : CABAC / 5 Ref Frames
Format settings, CABAC         : Yes
Format settings, Reference fra : 5 frames
Codec ID                       : avc1
Codec ID/Info                  : Advanced Video Coding
Duration                       : 3 min 15 s
Bit rate                       : 10.1 Mb/s
Width                          : 1 912 pixels
Height                         : 820 pixels
Display aspect ratio           : 2.35:1
Frame rate mode                : Constant
Frame rate                     : 25.000 FPS
Color space                    : YUV
Chroma subsampling             : 4:2:0
Bit depth                      : 8 bits
Scan type                      : Progressive
Bits/(Pixel*Frame)             : 0.257
Stream size                    : 235 MiB (97%)
Color range                    : Limited
Color primaries                : BT.709
Transfer characteristics       : BT.709
Matrix coefficients            : BT.709
Codec configuration box        : avcC

Audio
ID                             : 2
Format                         : AAC LC
Format/Info                    : Advanced Audio Codec Low Complexity
Codec ID                       : mp4a-40-2
Duration                       : 3 min 15 s
Bit rate mode                  : Constant
Bit rate                       : 254 kb/s
Channel(s)                     : 2 channels
Channel layout                 : L R
Sampling rate                  : 48.0 kHz
Frame rate                     : 46.875 FPS (1024 SPF)
Compression mode               : Lossy
Stream size                    : 5.93 MiB (2%)
Default                        : Yes
Alternate group                : 1

</pre>
</div>
<div class="bbCodeBlock bbCodeVfcHH HiddenContent">
<div class="attribution type">Hidden Content:</div>
<blockquote>You must either reply or click 'Like' to see the hidden information contained here.</blockquote>
</div>
<div class="messageTextEndMarker">&nbsp;</div>
</blockquote>
</article>]]></description>
                <author><![CDATA[vitalya3]]></author>
                </item>

                </channel></rss>